<?xml version="1.0" standalone="no"?>
<!DOCTYPE svg PUBLIC "-//W3C//DTD SVG 20010904//EN"
 "http://www.w3.org/TR/2001/REC-SVG-20010904/DTD/svg10.dtd">
<svg version="1.0" xmlns="http://www.w3.org/2000/svg"
 width="1024.000000pt" height="1024.000000pt" viewBox="0 0 1024.000000 1024.000000"
 preserveAspectRatio="xMidYMid meet">
<metadata>
Created by potrace 1.11, written by Peter Selinger 2001-2013
</metadata>
<g transform="translate(0.000000,1024.000000) scale(0.100000,-0.100000)"
fill="#000000" stroke="none">
<path d="M4850 9466 c-3 -2 -47 -7 -99 -11 -51 -4 -101 -8 -111 -10 -10 -2
-47 -6 -82 -10 -144 -14 -526 -92 -572 -117 -12 -6 -23 -11 -26 -10 -22 6
-414 -125 -472 -158 -10 -6 -22 -10 -28 -10 -23 0 -355 -161 -475 -230 -48
-28 -89 -50 -91 -50 -12 0 -358 -234 -434 -294 -47 -36 -93 -72 -103 -80 -123
-95 -383 -348 -519 -506 -186 -216 -301 -381 -499 -714 -26 -43 -172 -336
-212 -426 -103 -230 -224 -619 -271 -865 -62 -327 -80 -529 -80 -865 1 -230 9
-375 29 -510 2 -14 6 -47 10 -75 3 -27 12 -86 20 -130 8 -44 17 -96 20 -115 3
-19 11 -53 17 -75 5 -22 12 -51 14 -65 16 -89 102 -371 164 -535 72 -190 220
-506 298 -635 12 -19 32 -55 46 -80 59 -109 314 -472 391 -556 5 -6 35 -40 65
-75 86 -101 315 -327 430 -426 543 -466 1268 -823 1955 -963 28 -6 66 -13 85
-16 19 -3 51 -9 70 -14 19 -4 62 -11 95 -15 32 -4 66 -8 75 -10 39 -7 188 -22
310 -30 84 -6 427 -6 505 0 88 6 245 22 310 31 44 6 215 32 255 39 412 73 948
276 1363 516 165 96 462 294 507 339 3 3 28 23 55 45 114 90 177 148 330 300
168 168 255 267 374 425 39 52 75 100 81 107 5 6 40 58 76 115 37 57 77 119
89 138 68 104 202 361 280 535 121 269 252 679 290 905 2 14 11 63 19 110 18
104 22 133 40 285 26 223 26 742 1 895 -2 14 -7 50 -10 80 -12 112 -43 294
-69 405 -2 11 -9 43 -16 70 -110 495 -380 1088 -697 1533 -490 689 -1177 1219
-1973 1522 -47 17 -94 36 -105 40 -71 30 -383 121 -465 136 -14 3 -50 11 -80
19 -78 20 -205 42 -275 50 -33 3 -69 8 -80 10 -11 2 -49 7 -85 10 -36 4 -76 9
-90 12 -31 6 -644 15 -650 9z m-870 -800 c0 -4 -139 -334 -165 -391 -46 -102
-84 -199 -80 -206 4 -6 112 -67 310 -174 22 -12 56 -31 75 -42 19 -11 64 -36
100 -55 36 -20 209 -116 385 -213 176 -97 343 -190 370 -205 28 -15 71 -39 97
-54 l47 -26 148 81 c81 45 294 163 472 261 178 99 346 192 375 207 28 16 110
61 181 101 72 41 147 82 167 92 20 10 39 22 42 27 4 5 -23 78 -60 163 -36 84
-92 215 -125 292 -33 76 -58 140 -56 142 5 6 123 -36 271 -95 466 -187 893
-473 1241 -832 133 -137 319 -358 358 -425 4 -7 -15 -8 -61 -3 -37 4 -103 10
-147 13 -44 4 -100 8 -125 11 -25 3 -72 7 -105 10 -33 2 -92 7 -131 11 l-71 6
-36 -184 c-20 -100 -61 -313 -92 -473 -31 -159 -59 -299 -61 -310 -2 -11 -13
-67 -24 -125 -12 -58 -23 -116 -26 -130 -2 -14 -13 -70 -24 -125 -24 -118 -26
-127 -34 -181 l-7 -40 127 -120 c70 -65 135 -126 144 -134 10 -8 75 -69 146
-136 71 -67 143 -133 159 -148 27 -26 229 -214 279 -261 12 -11 85 -80 164
-154 l142 -134 23 19 c12 10 24 21 27 24 3 3 93 81 200 174 107 93 207 180
222 194 l27 25 -4 -109 c-6 -146 -15 -293 -20 -324 -2 -14 -7 -50 -10 -80 -7
-61 -43 -276 -51 -302 -3 -9 -6 -25 -8 -35 -70 -350 -269 -821 -491 -1164 -68
-105 -137 -201 -141 -196 -2 2 -35 142 -74 312 -38 170 -72 310 -74 313 -3 2
-65 -3 -138 -12 -73 -9 -155 -19 -183 -22 -27 -4 -57 -8 -65 -9 -8 -1 -46 -6
-83 -10 -37 -3 -77 -8 -87 -10 -10 -2 -45 -6 -77 -10 -32 -3 -69 -8 -83 -10
-14 -2 -50 -6 -80 -10 -30 -3 -71 -8 -90 -11 -19 -2 -53 -6 -75 -9 -22 -2
-112 -13 -200 -24 -88 -11 -182 -22 -210 -26 -134 -15 -209 -26 -211 -28 -1
-1 -24 -51 -52 -112 -28 -60 -72 -155 -97 -210 -26 -55 -60 -128 -76 -163 -66
-143 -89 -192 -129 -277 -23 -49 -58 -123 -77 -164 -19 -41 -63 -135 -98 -210
-35 -75 -81 -175 -103 -223 l-40 -86 267 -158 c146 -87 272 -162 279 -167 10
-8 -2 -15 -45 -29 -110 -35 -367 -99 -453 -113 -37 -6 -89 -13 -145 -21 -27
-3 -53 -8 -56 -10 -29 -17 -659 -26 -789 -11 -36 4 -83 9 -105 12 -22 2 -58 7
-80 11 -22 3 -51 8 -65 10 -146 24 -375 78 -513 122 l-59 19 49 30 c26 17 64
40 83 51 162 91 424 255 422 264 -2 6 -19 45 -39 87 -30 64 -119 256 -415 891
-22 47 -48 103 -58 125 -10 22 -43 92 -72 155 -30 63 -61 130 -69 148 -7 17
-21 32 -29 33 -8 0 -24 2 -35 4 -11 2 -49 7 -85 10 -36 3 -72 8 -80 10 -8 2
-40 7 -70 10 -30 3 -89 10 -130 15 -101 13 -134 17 -205 25 -33 4 -71 8 -85
11 -14 2 -50 6 -80 10 -30 3 -65 7 -78 9 -13 2 -53 7 -90 11 -37 3 -76 8 -87
10 -11 3 -47 7 -80 10 -33 3 -71 7 -85 10 -14 2 -65 9 -115 14 -49 6 -103 13
-120 15 -16 2 -55 7 -85 11 l-56 6 -14 -53 c-8 -30 -15 -61 -17 -70 -1 -9 -23
-103 -47 -210 -25 -107 -47 -208 -50 -226 -15 -84 -17 -84 -88 18 -66 94 -103
153 -137 212 -10 18 -38 66 -62 107 -146 255 -287 618 -354 910 -18 75 -44
204 -51 245 -4 28 -8 52 -9 55 0 3 -5 37 -9 75 -4 39 -10 82 -12 97 -14 118
-26 408 -15 408 3 0 24 -16 46 -36 22 -19 63 -55 91 -80 28 -24 118 -102 200
-174 82 -72 152 -129 155 -128 4 2 64 57 134 123 71 66 143 134 160 150 18 17
90 84 160 150 70 66 137 128 149 138 11 10 52 48 91 85 39 37 122 114 184 172
62 58 152 141 199 185 l85 81 -22 114 c-12 63 -26 135 -31 160 -5 25 -24 119
-41 210 -17 91 -33 174 -35 185 -2 11 -17 92 -34 180 -31 164 -37 192 -45 235
-3 14 -7 36 -10 50 -3 14 -7 34 -9 45 -2 11 -16 85 -30 165 -15 80 -30 156
-33 170 -4 14 -7 30 -7 35 -1 13 -68 14 -171 4 -44 -5 -111 -11 -150 -14 -38
-3 -90 -8 -115 -10 -25 -3 -85 -7 -135 -11 l-90 -7 36 44 c19 24 62 78 95 119
410 518 955 908 1609 1151 129 48 145 53 145 45z"/>
<path d="M5009 6442 c-59 -42 -133 -96 -165 -120 -92 -67 -422 -306 -489 -354
-32 -24 -82 -60 -110 -80 -27 -20 -65 -47 -83 -60 -18 -13 -66 -48 -107 -78
-41 -30 -131 -95 -200 -145 -69 -49 -125 -93 -125 -96 0 -4 22 -73 49 -155 81
-244 262 -797 375 -1145 l106 -326 862 1 862 1 67 205 c37 113 113 347 169
520 56 173 111 344 123 380 12 36 22 67 22 70 1 3 4 12 8 20 32 79 137 434
130 439 -7 7 -303 221 -743 539 -80 58 -170 123 -200 146 -30 22 -81 59 -112
81 -31 22 -117 84 -191 138 -75 53 -137 97 -139 97 -1 -1 -51 -36 -109 -78z"/>
</g>
</svg>
